{"title":"Glee S03E06 HDTV XviD-LOL [Arnarcool]","uid":6822312,"size":366219510,"categoryP":"video","categoryS":"tv_shows","magnet":"?xt=urn:btih:cec57ce302ed8aa675db29edae4cab601cf66c9d&amp;dn=Glee+S03E06+HDTV+XviD-LOL+%5BArnarcool%5D&amp;tr=udp%3A%2F%2Ftracker.openbittorrent.com%3A80&amp;tr=udp%3A%2F%2Fopen.demonii.com%3A1337&amp;tr=udp%3A%2F%2Ftracker.coppersurfer.tk%3A6969&amp;tr=udp%3A%2F%2Fexodus.desync.com%3A6969","seeders":2,"leechers":0,"uploader":"TvFreak","files":-1,"time":1321405128,"description":"Glee.S03E06.HDTV.XviD-LOL [Arnarcool]\n\nHope you enjoy and please seed :D\n\nSCREENSHOTS:\n &lt;a href=&quot;\nhttp://image.bayimg.com/iakljaadp.jpg&quot; rel=&quot;nofollow&quot; target=&quot;_NEW&quot;&gt;\nhttp://image.bayimg.com/iakljaadp.jpg&lt;/a&gt;\n &lt;a href=&quot;\nhttp://image.bayimg.com/iaklkaadp.jpg&quot; rel=&quot;nofollow&quot; target=&quot;_NEW&quot;&gt;\nhttp://image.bayimg.com/iaklkaadp.jpg&lt;/a&gt;\n &lt;a href=&quot;\nhttp://image.bayimg.com/iakllaadp.jpg&quot; rel=&quot;nofollow&quot; target=&quot;_NEW&quot;&gt;\nhttp://image.bayimg.com/iakllaadp.jpg&lt;/a&gt;\n\n\nINFO: \n\n\nFormat                           : AVI\nFormat/Info                      : Audio Video Interleave\nFile size                        : 349 MiB\nDuration                         : 39mn 37s\nOverall bit rate mode            : Variable\nOverall bit rate                 : 1 233 Kbps\nWriting application              : Lavf53.2.0\n\nVideo\nID                               : 0\nFormat                           : MPEG-4 Visual\nFormat profile                   : Advanced Simple@L5\nFormat settings, BVOP            : 2\nFormat settings, QPel            : No\nFormat settings, GMC             : No warppoints\nFormat settings, Matrix          : Default (H.263)\nCodec ID                         : XVID\nCodec ID/Hint                    : XviD\nDuration                         : 39mn 36s\nBit rate                         : 1 067 Kbps\nWidth                            : 624 pixels\nHeight                           : 352 pixels\nDisplay aspect ratio             : 16:9\nFrame rate                       : 23.976 fps\nColor space                      : YUV\nChroma subsampling               : 4:2:0\nBit depth                        : 8 bits\nScan type                        : Progressive\nCompression mode                 : Lossy\nBits/(Pixel*Frame)               : 0.203\nStream size                      : 302 MiB (87%)\nWriting library                  : XviD 63\n\nAudio\nID                               : 1\nFormat                           : MPEG Audio\nFormat version                   : Version 1\nFormat profile                   : Layer 3\nMode                             : Joint stereo\nMode extension                   : MS Stereo\nCodec ID                         : 55\nCodec ID/Hint                    : MP3\nDuration                         : 39mn 37s\nBit rate mode                    : Variable\nBit rate                         : 153 Kbps\nChannel(s)                       : 2 channels\nSampling rate                    : 48.0 KHz\nCompression mode                 : Lossy\nStream size                      : 43.2 MiB (12%)\nAlignment                        : Aligned on interleaves\nInterleave, duration             : 24 ms (0.58 video frame)\n\n","torrent":{"xt":"urn:btih:cec57ce302ed8aa675db29edae4cab601cf66c9d","amp;dn":"Glee+S03E06+HDTV+XviD-LOL+%5BArnarcool%5D","amp;tr":["udp%3A%2F%2Ftracker.openbittorrent.com%3A80","udp%3A%2F%2Fopen.demonii.com%3A1337","udp%3A%2F%2Ftracker.coppersurfer.tk%3A6969","udp%3A%2F%2Fexodus.desync.com%3A6969"],"infoHash":"cec57ce302ed8aa675db29edae4cab601cf66c9d","infoHashBuffer":{"type":"Buffer","data":[206,197,124,227,2,237,138,166,117,219,41,237,174,76,171,96,28,246,108,157]},"announce":[],"urlList":[]}}